<?xml version="1.0" encoding="UTF-8"?>
<svg version="1.1" xmlns="http://www.w3.org/2000/svg" width="72" height="72">
<path d="M0 0 C5.819144 2.12915035 9.59017947 5.06989455 12.90234375 10.2890625 C14.48012149 16.60017347 14.04623285 21.78713619 10.96484375 27.5390625 C8.83984375 30.0390625 8.83984375 30.0390625 5.83984375 32.0390625 C6.74734375 32.5753125 7.65484375 33.1115625 8.58984375 33.6640625 C12.85559284 36.49781071 15.22743402 40.20183331 16.83984375 45.0390625 C17.61955768 51.51963567 16.73548546 56.72470948 12.83984375 62.0390625 C6.89159227 68.41810657 -2.5603695 69.92731661 -10.91015625 70.6640625 C-15.56700329 70.47913356 -18.03672405 68.26542027 -21.2734375 65.0859375 C-23.63216545 62.52698627 -25.93052561 59.92919845 -28.1796875 57.2734375 C-30.56473071 54.58261951 -33.09986463 52.06085675 -35.66015625 49.5390625 C-39.50243735 45.74957611 -43.16859373 41.87327901 -46.65234375 37.75 C-48.07315687 36.137782 -49.56605852 34.72636373 -51.16015625 33.2890625 C-53.16015625 31.0390625 -53.16015625 31.0390625 -53.15234375 29.25390625 C-51.64133579 25.88090817 -49.00234409 23.75807159 -46.28515625 21.3515625 C-45.70233887 20.82409424 -45.11952148 20.29662598 -44.51904297 19.75317383 C-40.00878485 15.70448466 -35.33846928 11.87221046 -30.609375 8.08203125 C-27.71679063 5.66923759 -25.0878172 3.08490488 -22.5 0.3515625 C-17.12366161 -4.9150547 -6.36996442 -1.75440462 0 0 Z M-30.16015625 16.0390625 C-30.16015625 19.0090625 -30.16015625 21.9790625 -30.16015625 25.0390625 C-27.72235995 25.09303585 -25.2857594 25.13271866 -22.84765625 25.1640625 C-21.8122168 25.18919922 -21.8122168 25.18919922 -20.75585938 25.21484375 C-16.98880229 25.25124044 -15.37583921 25.18285114 -12.16015625 23.0390625 C-12.49015625 21.0590625 -12.82015625 19.0790625 -13.16015625 17.0390625 C-16.72060802 15.85224524 -19.59823962 15.94216418 -23.34765625 15.9765625 C-24.61996094 15.98558594 -25.89226563 15.99460937 -27.203125 16.00390625 C-28.17894531 16.01550781 -29.15476562 16.02710937 -30.16015625 16.0390625 Z M-30.16015625 42.0390625 C-30.16015625 45.3390625 -30.16015625 48.6390625 -30.16015625 52.0390625 C-27.40989208 52.09310699 -24.66069422 52.13275556 -21.91015625 52.1640625 C-20.74419922 52.18919922 -20.74419922 52.18919922 -19.5546875 52.21484375 C-14.07708689 52.29874551 -14.07708689 52.29874551 -9.16015625 50.0390625 C-9.16015625 48.0590625 -9.16015625 46.0790625 -9.16015625 44.0390625 C-13.57045408 41.82956418 -17.64955949 41.8019977 -22.47265625 41.9140625 C-23.58350586 41.92759766 -23.58350586 41.92759766 -24.71679688 41.94140625 C-26.53139092 41.96482037 -28.34581696 42.00068635 -30.16015625 42.0390625 Z " fill="#D7E596" transform="translate(55.16015625,1.9609375)"/>
<path d="M0 0 C0.33 0.66 0.66 1.32 1 2 C-5.92938497 10.81548975 -5.92938497 10.81548975 -12 12 C-8.32167983 7.47384007 -4.58913637 3.60575001 0 0 Z " fill="#DDE6A7" transform="translate(15,18)"/>
</svg>
