<?xml version="1.0" encoding="UTF-8"?>
<!-- Generator: visioncortex VTracer 0.6.3 -->
<svg version="1.1" xmlns="http://www.w3.org/2000/svg" width="1280" height="254">
<path d="M0 0 C422.4 0 844.8 0 1280 0 C1280 83.82 1280 167.64 1280 254 C857.6 254 435.2 254 0 254 C0 170.18 0 86.36 0 0 Z " fill="#FAFCFC" transform="translate(0,0)"/>
<path d="M0 0 C144.2 0 144.2 0 164.35 19.08 C180.09 36.42 181.93 55.17 181.2 77.75 C180.3 92.61 173.91 103.6 163.61 113.89 C160.32 117.24 160.32 117.24 160 122 C161.67 123.67 161.67 123.67 163.94 125.12 C177.81 135.33 187.18 149.93 190 167 C190.22 171.44 190.23 175.89 190.24 180.33 C190.25 182.47 190.28 184.6 190.31 186.73 C190.46 205.24 185.76 219.41 173 233 C162.53 242.94 150.12 247.53 136.61 251.8 C133.22 252.63 133.22 252.63 132 254 C130.29 254.1 128.58 254.12 126.87 254.12 C125.76 254.12 124.65 254.12 123.51 254.12 C122.27 254.12 121.04 254.12 119.77 254.11 C118.46 254.11 117.15 254.11 115.8 254.11 C112.25 254.11 108.7 254.11 105.15 254.1 C101.82 254.1 98.49 254.1 95.17 254.09 C85.42 254.09 75.68 254.08 65.94 254.06 C44.18 254.04 22.42 254.02 0 254 C0 170.18 0 86.36 0 0 Z " fill="#D9E696" transform="translate(0,0)"/>
<path d="M0 0 C32.01 0 64.02 0 97 0 C94.97 4.06 92.53 6.83 89.44 10.06 C84.75 15.04 80.33 20.15 76.05 25.48 C73.13 29.07 70.08 32.54 67 36 C66.34 35.67 65.68 35.34 65 35 C64.9 35.59 64.79 36.17 64.69 36.77 C63.89 39.37 62.83 40.63 61 42.62 C60.37 43.32 59.74 44.02 59.09 44.74 C58.4 45.48 57.71 46.23 57 47 C52.43 52.01 47.94 57.03 43.69 62.31 C39.8 67.13 35.67 71.65 31.44 76.16 C27.55 80.34 23.94 84.7 20.37 89.16 C17.06 93.13 13.54 96.91 9.98 100.67 C7.76 103.04 5.8 105.29 4 108 C4.18 113.25 6.17 116.01 9.44 120 C10.35 121.14 11.26 122.28 12.17 123.43 C12.64 124.01 13.11 124.6 13.59 125.2 C15.88 128.13 18.04 131.15 20.19 134.19 C20.61 134.78 21.03 135.37 21.46 135.98 C23.79 139.27 26.09 142.57 28.38 145.88 C31.38 150.18 34.52 154.37 37.69 158.56 C42.07 164.37 46.36 170.24 50.56 176.19 C51.31 177.25 51.31 177.25 52.08 178.33 C54.02 181.09 55.89 183.82 57.59 186.74 C58.91 189.05 58.91 189.05 60.84 190.82 C63.87 193.88 66.18 197.34 68.62 200.88 C69.7 202.42 70.78 203.96 71.86 205.5 C72.66 206.65 72.66 206.65 73.47 207.82 C75.59 210.85 77.73 213.86 79.88 216.88 C80.27 217.42 80.66 217.97 81.06 218.54 C83.51 221.97 86.01 225.36 88.52 228.74 C89.14 229.57 89.76 230.4 90.39 231.25 C91.59 232.87 92.79 234.47 94 236.08 C98.1 241.58 101.43 247.05 105 253 C70.35 252.67 35.7 252.34 0 252 C0 168.84 0 85.68 0 0 Z " fill="#0C604C" transform="translate(0,0)"/>
<path d="M0 0 C8.48 -0.09 16.95 -0.16 25.43 -0.21 C29.37 -0.23 33.31 -0.26 37.24 -0.3 C41.06 -0.35 44.87 -0.37 48.68 -0.38 C50.12 -0.39 51.56 -0.4 53.01 -0.42 C66.07 -0.61 81 0.55 91 10 C96.98 17.09 99.48 24.26 99.25 33.52 C98.52 40.84 94.87 46.6 90 52 C89.01 52.66 88.02 53.32 87 54 C87 54.66 87 55.32 87 56 C88.34 56.91 89.72 57.75 91.12 58.56 C97.56 62.7 101.7 68.71 104 76 C105.18 84.98 105.45 94.44 99.88 101.96 C91.3 111.27 81.41 114.46 69 116 C66.67 116.09 64.33 116.14 61.99 116.15 C61.33 116.15 60.67 116.15 59.99 116.16 C57.83 116.16 55.67 116.17 53.51 116.17 C52 116.17 50.49 116.17 48.98 116.18 C45.83 116.18 42.68 116.19 39.53 116.19 C35.49 116.19 31.44 116.2 27.4 116.22 C24.29 116.23 21.18 116.23 18.07 116.23 C16.57 116.23 15.08 116.23 13.59 116.24 C11.51 116.25 9.44 116.25 7.36 116.24 C5.58 116.25 5.58 116.25 3.77 116.25 C1 116 1 116 -1 114 C-1.25 112.01 -1.25 112.01 -1.25 109.52 C-1.25 108.58 -1.26 107.64 -1.26 106.67 C-1.25 105.63 -1.25 104.59 -1.24 103.52 C-1.24 102.43 -1.25 101.34 -1.25 100.22 C-1.25 96.61 -1.24 92.99 -1.23 89.38 C-1.23 86.87 -1.23 84.37 -1.23 81.86 C-1.23 76.61 -1.22 71.36 -1.21 66.11 C-1.19 60.03 -1.18 53.95 -1.19 47.88 C-1.19 42.04 -1.18 36.2 -1.17 30.36 C-1.17 27.87 -1.17 25.38 -1.17 22.89 C-1.16 19.42 -1.16 15.95 -1.15 12.48 C-1.15 11.44 -1.15 10.4 -1.15 9.33 C-1.14 8.39 -1.14 7.45 -1.13 6.48 C-1.13 5.66 -1.13 4.84 -1.13 3.99 C-1 2 -1 2 0 0 Z " fill="#0C604C" transform="translate(845,77)"/>
<path d="M0 0 C10.76 11.96 13.13 25 12.46 40.51 C11.74 50.84 6.07 60.35 -1.37 67.39 C-14.02 77.58 -27.94 79.77 -43.68 78.57 C-57.05 76.52 -68.84 70.13 -77.41 59.52 C-84.03 49.45 -86.25 36.58 -83.96 24.89 C-82.3 17.78 -80.26 11.38 -75.68 5.57 C-75.24 4.97 -74.8 4.37 -74.35 3.75 C-66.31 -6.5 -53.59 -11.5 -40.93 -13.3 C-26.21 -14.21 -10.97 -10.05 0 0 Z " fill="#0C604C" transform="translate(1152.68359375,115.42578125)"/>
<path d="M0 0 C10.73 10.92 15.43 23.48 15.37 38.56 C15.21 44.98 13.9 50.24 11 56 C10.59 56.86 10.17 57.72 9.75 58.61 C4.05 69.31 -5.86 75.59 -17 79.75 C-29.22 83.2 -45.36 82.28 -56.67 76.68 C-59.2 75.22 -61.6 73.65 -64 72 C-64.72 71.55 -65.44 71.1 -66.19 70.63 C-75.65 64.31 -79.8 53.85 -82 43 C-83.47 29.64 -80.24 16.72 -72 6 C-63.46 -3.86 -51.55 -8.98 -38.73 -10.82 C-25.21 -11.72 -10.75 -8.58 0 0 Z " fill="#0C604C" transform="translate(1043,113)"/>
<path d="M0 0 C4.15 -0.03 8.29 -0.05 12.44 -0.06 C14.21 -0.08 14.21 -0.08 16.03 -0.09 C17.15 -0.09 18.27 -0.09 19.43 -0.1 C20.48 -0.1 21.52 -0.11 22.59 -0.11 C25 0 25 0 26 1 C26.12 2.53 26.18 4.07 26.21 5.61 C26.23 6.59 26.25 7.57 26.27 8.58 C26.28 9.65 26.3 10.72 26.32 11.82 C26.34 12.9 26.36 13.99 26.38 15.11 C26.44 18.59 26.5 22.08 26.56 25.56 C26.61 27.92 26.65 30.27 26.69 32.63 C26.8 38.42 26.9 44.21 27 50 C29.07 50.21 29.07 50.21 30.49 48.75 C31.07 48.17 31.64 47.59 32.23 47 C32.87 46.36 33.5 45.73 34.15 45.07 C34.83 44.39 35.5 43.7 36.19 43 C36.87 42.31 37.55 41.62 38.26 40.91 C42.68 36.41 46.96 31.85 51 27 C52.26 25.5 53.54 24 54.81 22.5 C55.38 21.83 55.94 21.16 56.52 20.47 C58 19 58 19 60 19 C60.24 18.43 60.48 17.86 60.73 17.28 C62.25 14.55 64.07 12.73 66.31 10.56 C67.51 9.39 67.51 9.39 68.74 8.19 C69.48 7.47 70.23 6.75 71 6 C72 5 73 4 74 3 C78.51 -1.51 83.63 -0.18 89.88 -0.19 C91.09 -0.2 92.3 -0.21 93.54 -0.22 C94.7 -0.23 95.86 -0.23 97.05 -0.23 C98.12 -0.23 99.19 -0.24 100.29 -0.24 C103 0 103 0 106 2 C103.46 4.55 100.91 7.09 98.35 9.61 C97.45 10.5 96.55 11.39 95.62 12.31 C94.28 13.64 94.28 13.64 92.91 14.99 C90.08 17.85 87.46 20.88 84.83 23.92 C81.82 27.34 78.69 30.63 75.56 33.94 C70.28 39.54 65.06 45.19 60 51 C62.91 56.69 66.62 61.35 70.71 66.25 C74.7 71.04 78.47 76.01 82.27 80.96 C86.76 86.8 91.26 92.64 95.81 98.44 C96.26 99 96.7 99.57 97.16 100.16 C99.28 102.86 101.44 105.51 103.7 108.1 C105.82 110.77 106.83 112.84 108 116 C104 116.15 100 116.26 95.99 116.33 C94.64 116.36 93.28 116.4 91.92 116.45 C79.18 116.93 79.18 116.93 74.78 113.24 C73.24 111.58 73.24 111.58 72 110 C71.06 108.93 71.06 108.93 70.1 107.83 C69.61 107.17 69.13 106.5 68.62 105.81 C66.07 102.41 63.46 99.09 60.75 95.81 C56.65 90.84 52.66 85.78 48.72 80.68 C46.61 77.97 44.52 75.34 42 73 C35.64 75.96 29.86 79.37 27 86 C25.29 95.84 25.68 106.06 26 116 C21.88 116.06 17.75 116.09 13.62 116.12 C12.45 116.14 11.27 116.16 10.06 116.18 C8.38 116.19 8.38 116.19 6.66 116.2 C5.63 116.21 4.59 116.22 3.52 116.23 C1 116 1 116 -1 114 C-1.25 112.03 -1.25 112.03 -1.25 109.57 C-1.25 108.17 -1.25 108.17 -1.26 106.74 C-1.25 105.71 -1.25 104.69 -1.24 103.63 C-1.24 102.55 -1.25 101.47 -1.25 100.36 C-1.25 96.79 -1.24 93.21 -1.23 89.63 C-1.23 87.15 -1.23 84.67 -1.23 82.19 C-1.23 76.32 -1.22 70.46 -1.2 64.59 C-1.19 58.58 -1.19 52.57 -1.19 46.56 C-1.19 41.44 -1.18 36.32 -1.17 31.2 C-1.17 28.74 -1.17 26.27 -1.17 23.81 C-1.16 20.37 -1.16 16.94 -1.15 13.5 C-1.15 12.47 -1.15 11.45 -1.15 10.4 C-1.14 9.46 -1.14 8.52 -1.13 7.56 C-1.13 6.75 -1.13 5.93 -1.13 5.1 C-1 3 -1 3 0 0 Z " fill="#0C604C" transform="translate(226,77)"/>
<path d="M0 0 C1.47 -0 1.47 -0 2.96 -0.01 C3.98 -0 5.01 0.01 6.06 0.02 C7.09 0.01 8.11 0 9.16 -0.01 C10.14 -0.01 11.12 -0 12.12 0 C13.02 0 13.92 0 14.85 0.01 C17.06 0.27 17.06 0.27 19.06 2.27 C19.34 4.94 19.34 4.94 19.38 8.37 C19.4 9.65 19.42 10.93 19.44 12.25 C19.45 13.65 19.47 15.06 19.48 16.46 C19.5 17.89 19.51 19.33 19.54 20.76 C19.59 24.53 19.63 28.3 19.66 32.07 C19.7 35.92 19.75 39.77 19.8 43.61 C19.9 51.16 19.99 58.71 20.06 66.27 C22.29 66.5 22.29 66.5 24.06 64.33 C24.72 63.64 24.72 63.64 25.39 62.94 C27.44 60.89 29.59 58.99 31.75 57.08 C36.26 53.06 40.52 48.85 44.74 44.53 C47.07 42.26 49.52 40.29 52.06 38.27 C52.94 37.23 52.94 37.23 53.83 36.17 C56.76 33.67 58.43 33.78 62.25 33.8 C64.04 33.81 64.04 33.81 65.87 33.82 C67.73 33.85 67.73 33.85 69.62 33.89 C70.87 33.89 72.11 33.89 73.4 33.89 C82.64 33.98 82.64 33.98 86.06 36.27 C55.06 67.27 55.06 67.27 53.2 68.99 C51.81 70.27 51.81 70.27 52.07 72.55 C53.38 76.14 55.53 78.79 57.94 81.7 C58.95 82.95 59.96 84.21 60.96 85.46 C61.48 86.09 62 86.73 62.53 87.38 C64.88 90.28 67.19 93.21 69.5 96.14 C69.94 96.7 70.39 97.27 70.84 97.85 C74.49 102.5 78.07 107.18 81.62 111.89 C82.39 112.9 82.39 112.9 83.18 113.94 C83.66 114.57 84.14 115.21 84.63 115.87 C85.05 116.43 85.47 116.99 85.91 117.56 C87.15 119.39 88.12 121.27 89.06 123.27 C85.06 123.41 81.06 123.52 77.06 123.6 C75.7 123.63 74.34 123.67 72.98 123.72 C60.24 124.2 60.24 124.2 55.82 120.48 C54.29 118.83 54.29 118.83 53.06 117.27 C52.48 116.61 51.9 115.95 51.3 115.27 C50.85 114.65 50.4 114.03 49.94 113.39 C45.92 108.02 41.67 102.85 37.42 97.67 C36.87 97 36.32 96.33 35.76 95.64 C35.26 95.04 34.77 94.44 34.26 93.82 C33.06 92.27 33.06 92.27 32.06 90.27 C26.83 92.76 22.88 95.02 20.06 100.27 C18.9 106.85 19.03 113.6 19.14 120.26 C19.06 122.27 19.06 122.27 18.06 123.27 C14.26 123.52 10.44 123.45 6.62 123.45 C5.55 123.47 4.47 123.48 3.37 123.49 C2.34 123.49 1.31 123.49 0.25 123.5 C-1.17 123.5 -1.17 123.5 -2.61 123.51 C-4.94 123.27 -4.94 123.27 -6.94 121.27 C-7.19 119.17 -7.19 119.17 -7.19 116.52 C-7.2 115.52 -7.2 114.52 -7.21 113.49 C-7.2 112.38 -7.2 111.28 -7.2 110.15 C-7.2 108.99 -7.2 107.83 -7.21 106.64 C-7.22 102.8 -7.21 98.95 -7.2 95.11 C-7.2 92.45 -7.21 89.79 -7.21 87.13 C-7.21 81.55 -7.21 75.96 -7.2 70.38 C-7.19 63.92 -7.19 57.47 -7.2 51.01 C-7.21 45.47 -7.21 39.93 -7.21 34.39 C-7.2 31.08 -7.2 27.77 -7.21 24.45 C-7.22 20.76 -7.21 17.07 -7.2 13.38 C-7.2 12.28 -7.2 11.18 -7.21 10.04 C-7.2 9.04 -7.2 8.04 -7.19 7.01 C-7.19 6.14 -7.19 5.26 -7.19 4.36 C-6.65 -0.14 -3.84 0.01 0 0 Z " fill="#0C604C" transform="translate(1188.9375,69.734375)"/>
<path d="M0 0 C0.74 0.3 1.48 0.61 2.24 0.92 C9.07 4.39 12.77 11.31 16 18 C18.38 25.29 18.26 32.29 18.2 39.91 C18.19 41.24 18.19 42.57 18.19 43.91 C18.18 47.39 18.16 50.88 18.14 54.36 C18.12 57.93 18.11 61.5 18.1 65.06 C18.08 72.04 18.04 79.02 18 86 C14.38 86.06 10.75 86.09 7.12 86.12 C6.09 86.14 5.06 86.16 4 86.18 C3.01 86.18 2.02 86.19 1.01 86.2 C-0.36 86.21 -0.36 86.21 -1.75 86.23 C-4 86 -4 86 -6 84 C-6.12 80.88 -6.12 80.88 -6 78 C-6.46 78.4 -6.92 78.8 -7.4 79.21 C-17.15 87.13 -27.65 88.09 -39.86 87.26 C-45.07 86.62 -49.48 84.56 -54 82 C-54.71 81.63 -55.42 81.25 -56.14 80.87 C-61.83 77.43 -63.85 72.12 -65.58 65.91 C-67.14 58.77 -65.35 52.33 -62 46 C-56.29 38.61 -48.92 35.85 -40 34 C-34.41 33.43 -28.8 33.62 -23.19 33.75 C-21.71 33.77 -20.22 33.79 -18.74 33.8 C-15.16 33.85 -11.58 33.92 -8 34 C-8.3 32.56 -8.6 31.12 -8.9 29.68 C-9.07 28.88 -9.24 28.08 -9.41 27.25 C-10.28 23.92 -11.4 22.26 -14 20 C-24.98 14.55 -34.87 17.28 -46 21 C-48.4 21.91 -50.68 22.9 -53 24 C-53 23.34 -53 22.68 -53 22 C-53.99 21.67 -54.98 21.34 -56 21 C-57.64 18.16 -57.64 18.16 -59.25 14.62 C-60.06 12.88 -60.06 12.88 -60.89 11.1 C-62 8 -62 8 -61 5 C-56 1.53 -49.79 -0.29 -44 -2 C-43.34 -2.2 -42.68 -2.39 -42 -2.59 C-27.96 -6.44 -13.42 -5.69 0 0 Z " fill="#0C604C" transform="translate(801,107)"/>
<path d="M0 0 C5.93 5.76 10.83 15.01 11.18 23.33 C11.18 24.43 11.18 25.52 11.18 26.65 C11.18 28.51 11.18 28.51 11.18 30.41 C11.17 31.76 11.17 33.1 11.16 34.45 C11.16 35.84 11.16 37.22 11.16 38.61 C11.15 42.24 11.14 45.88 11.13 49.52 C11.12 53.23 11.12 56.94 11.11 60.66 C11.1 67.94 11.08 75.22 11.06 82.5 C3.8 82.5 -3.46 82.5 -10.94 82.5 C-11.6 80.52 -12.26 78.54 -12.94 76.5 C-16.61 77.84 -19.8 79.54 -23.09 81.6 C-30.98 85.46 -44.13 84.59 -52.5 82.38 C-57.32 80.64 -61.1 77.84 -64.94 74.5 C-65.7 73.88 -66.46 73.26 -67.25 72.62 C-71.35 67.47 -72.52 61.65 -72.28 55.15 C-71.45 48.78 -69.63 42.6 -64.88 38.06 C-57.05 32.21 -47.21 30.36 -37.67 30.4 C-36.99 30.4 -36.31 30.41 -35.6 30.41 C-33.44 30.41 -31.28 30.42 -29.12 30.44 C-27.65 30.44 -26.18 30.45 -24.71 30.45 C-21.12 30.46 -17.53 30.48 -13.94 30.5 C-14.39 29.07 -14.84 27.64 -15.3 26.21 C-15.55 25.42 -15.81 24.62 -16.07 23.8 C-17.47 20.09 -18.98 18.2 -21.94 15.5 C-24.86 14.43 -26.93 13.85 -29.94 13.5 C-30.62 13.42 -31.3 13.34 -32 13.25 C-41.33 12.7 -50.6 16.62 -58.94 20.5 C-63.33 16.92 -66.14 11.82 -67.94 6.5 C-67.86 3.85 -67.86 3.85 -66.94 1.5 C-63.92 -0.77 -60.42 -2.06 -56.94 -3.5 C-56.22 -3.8 -55.5 -4.1 -54.77 -4.41 C-38 -10.68 -15 -11.03 0 0 Z " fill="#0C604C" transform="translate(408.9375,110.5)"/>
<path d="M0 0 C3.98 -0.03 7.96 -0.05 11.94 -0.06 C13.07 -0.07 14.21 -0.08 15.38 -0.09 C16.46 -0.09 17.54 -0.09 18.65 -0.1 C20.15 -0.11 20.15 -0.11 21.68 -0.11 C24 0 24 0 25 1 C25.11 2.58 25.15 4.17 25.16 5.76 C25.17 6.78 25.18 7.79 25.19 8.84 C25.2 9.94 25.2 11.05 25.21 12.19 C25.24 14.52 25.27 16.85 25.3 19.18 C25.34 22.87 25.37 26.55 25.4 30.23 C25.43 33.78 25.47 37.33 25.52 40.88 C25.53 41.97 25.53 43.06 25.53 44.19 C25.64 50.91 25.88 57.66 30.72 62.84 C31.31 63.2 31.89 63.56 32.5 63.94 C33.09 64.32 33.68 64.7 34.28 65.09 C39.87 68.05 45.77 67.64 51.69 65.94 C55.91 63.47 60.04 60.11 61.54 55.26 C63.89 43.76 63.1 31.44 63 19.75 C62.97 16.43 62.95 13.11 62.94 9.8 C62.93 9.04 62.92 8.29 62.91 7.51 C62.89 2.23 62.89 2.23 64 0 C67.98 -0.03 71.96 -0.05 75.94 -0.06 C77.07 -0.07 78.21 -0.08 79.38 -0.09 C80.46 -0.09 81.54 -0.09 82.65 -0.1 C84.15 -0.11 84.15 -0.11 85.68 -0.11 C88 0 88 0 89 1 C89.1 3.74 89.13 6.45 89.11 9.19 C89.11 10.05 89.11 10.91 89.11 11.79 C89.11 14.64 89.11 17.5 89.1 20.35 C89.1 22.32 89.09 24.29 89.09 26.26 C89.09 31.46 89.08 36.66 89.07 41.86 C89.06 47.16 89.05 52.47 89.05 57.77 C89.04 68.18 89.02 78.59 89 89 C81.41 89 73.82 89 66 89 C65.01 85.53 65.01 85.53 64 82 C59.93 83.4 56.67 85.45 53.16 87.88 C45.42 91.9 31.9 91.08 23.62 88.94 C15.94 86.19 8.36 80.92 4 74 C-0.37 62.78 -1.16 52.17 -1.13 40.25 C-1.13 39.16 -1.13 38.07 -1.14 36.94 C-1.14 34.65 -1.13 32.36 -1.13 30.07 C-1.12 26.55 -1.13 23.03 -1.14 19.51 C-1.14 17.28 -1.13 15.05 -1.13 12.82 C-1.14 11.23 -1.14 11.23 -1.14 9.62 C-1.14 8.65 -1.13 7.68 -1.13 6.67 C-1.13 5.82 -1.13 4.96 -1.13 4.08 C-1 2 -1 2 0 0 Z " fill="#0C604C" transform="translate(444,104)"/>
<path d="M0 0 C6.65 5.93 11.55 15.21 12.24 24.11 C12.24 25.22 12.23 26.32 12.23 27.46 C12.23 28.73 12.23 29.99 12.23 31.29 C12.22 32.65 12.21 34.01 12.2 35.37 C12.19 36.77 12.19 38.17 12.19 39.58 C12.18 43.26 12.16 46.94 12.14 50.62 C12.12 54.38 12.11 58.14 12.1 61.9 C12.08 69.27 12.04 76.63 12 84 C8.21 84.06 4.42 84.09 0.62 84.12 C-1 84.15 -1 84.15 -2.65 84.18 C-3.68 84.18 -4.71 84.19 -5.77 84.2 C-7.2 84.21 -7.2 84.21 -8.66 84.23 C-11 84 -11 84 -13 82 C-13.25 79.84 -13.25 79.84 -13.26 77.13 C-13.26 76.11 -13.27 75.1 -13.28 74.05 C-13.28 72.95 -13.27 71.85 -13.27 70.71 C-13.29 68.38 -13.31 66.06 -13.34 63.73 C-13.36 60.06 -13.37 56.38 -13.38 52.71 C-13.39 49.17 -13.42 45.63 -13.46 42.09 C-13.46 41 -13.45 39.91 -13.45 38.78 C-13.53 32.36 -14.22 27.33 -18 22 C-22.27 17.94 -25.75 16.63 -31.68 16.72 C-37.22 17.39 -42.29 19.46 -46.44 23.19 C-50.66 30.79 -51.46 38.01 -51.51 46.6 C-51.53 47.67 -51.55 48.75 -51.57 49.85 C-51.62 53.26 -51.65 56.66 -51.69 60.06 C-51.72 62.38 -51.76 64.7 -51.79 67.02 C-51.88 72.68 -51.94 78.34 -52 84 C-55.98 84.03 -59.96 84.05 -63.94 84.06 C-65.64 84.08 -65.64 84.08 -67.38 84.09 C-68.46 84.09 -69.54 84.09 -70.65 84.1 C-72.15 84.11 -72.15 84.11 -73.68 84.11 C-76 84 -76 84 -77 83 C-77.1 80.26 -77.13 77.55 -77.11 74.81 C-77.11 73.95 -77.11 73.09 -77.11 72.21 C-77.11 69.36 -77.11 66.5 -77.1 63.65 C-77.1 61.68 -77.09 59.71 -77.09 57.74 C-77.09 52.54 -77.08 47.34 -77.07 42.14 C-77.06 36.84 -77.05 31.53 -77.05 26.23 C-77.04 15.82 -77.02 5.41 -77 -5 C-73.38 -5.06 -69.75 -5.09 -66.12 -5.12 C-65.09 -5.14 -64.06 -5.16 -63 -5.18 C-62.01 -5.18 -61.02 -5.19 -60.01 -5.2 C-58.64 -5.21 -58.64 -5.21 -57.25 -5.23 C-55 -5 -55 -5 -53 -3 C-52.29 -1.02 -51.61 0.98 -51 3 C-50.45 2.6 -49.91 2.2 -49.35 1.79 C-35.12 -8.2 -14.78 -10.66 0 0 Z " fill="#0C604C" transform="translate(634,109)"/>
<path d="M0 0 C1.47 -0 1.47 -0 2.96 -0.01 C3.98 -0 5.01 0.01 6.06 0.02 C7.09 0.01 8.11 0 9.16 -0.01 C10.14 -0.01 11.12 -0 12.12 0 C13.02 0 13.92 0 14.85 0.01 C17.06 0.27 17.06 0.27 19.06 2.27 C19.38 4.33 19.38 4.33 19.48 6.84 C19.53 8.18 19.53 8.18 19.59 9.55 C19.62 10.49 19.66 11.43 19.69 12.39 C19.75 13.81 19.75 13.81 19.8 15.25 C19.9 17.59 19.98 19.93 20.06 22.27 C20.91 22.25 20.91 22.25 21.77 22.23 C24.33 22.19 26.88 22.17 29.44 22.14 C30.33 22.12 31.22 22.11 32.13 22.09 C32.98 22.08 33.83 22.08 34.71 22.07 C35.89 22.05 35.89 22.05 37.09 22.04 C39.06 22.27 39.06 22.27 41.06 24.27 C41.23 26.97 41.29 29.56 41.25 32.27 C41.25 33 41.25 33.74 41.25 34.5 C41.2 39.98 41.2 39.98 40.06 42.27 C33.13 42.27 26.2 42.27 19.06 42.27 C19.09 48.01 19.13 53.76 19.22 59.51 C19.24 61.46 19.25 63.42 19.26 65.37 C19.27 68.18 19.31 71 19.36 73.81 C19.35 74.68 19.35 75.55 19.34 76.45 C19.45 80.86 19.64 82.72 22.42 86.32 C25.61 88.67 27.21 88.83 31.12 88.64 C32.15 88.61 33.17 88.57 34.22 88.54 C36.62 88.31 38.76 87.94 41.06 87.27 C43.06 93.27 45.06 99.27 47.06 105.27 C37.18 111.27 26.37 111.44 15.04 109.84 C7.81 107.98 1.81 103.74 -2.81 97.89 C-6.01 90.43 -7.37 84.12 -7.23 75.98 C-7.23 75.04 -7.22 74.1 -7.22 73.13 C-7.2 70.15 -7.16 67.18 -7.12 64.2 C-7.11 62.17 -7.1 60.14 -7.08 58.11 C-7.05 53.16 -7 48.21 -6.94 43.27 C-7.78 43.22 -8.62 43.17 -9.49 43.12 C-10.59 43.04 -11.68 42.97 -12.81 42.89 C-13.9 42.82 -14.99 42.75 -16.12 42.68 C-18.94 42.27 -18.94 42.27 -20.94 40.27 C-21.11 37.56 -21.17 34.97 -21.12 32.27 C-21.12 31.53 -21.12 30.79 -21.12 30.03 C-21.08 24.55 -21.08 24.55 -19.94 22.27 C-15.65 22.27 -11.36 22.27 -6.94 22.27 C-6.96 20.85 -6.98 19.42 -7.01 17.96 C-7.03 16.1 -7.04 14.25 -7.06 12.39 C-7.08 11.45 -7.1 10.52 -7.11 9.55 C-7.12 8.65 -7.13 7.76 -7.13 6.84 C-7.14 6.01 -7.15 5.18 -7.16 4.33 C-6.67 -0.16 -3.79 0.01 0 0 Z " fill="#0C604C" transform="translate(679.9375,83.734375)"/>
<path d="M0 0 C0.81 -0 1.63 -0 2.47 -0 C4.19 -0 5.91 0.01 7.64 0.03 C10.24 0.06 12.85 0.05 15.46 0.04 C35.29 0.06 35.29 0.06 42.59 5.81 C47.59 12.32 48.35 17.76 48.2 25.85 C47.5 30.48 46.05 32.74 42.77 35.98 C36.46 40.5 31.54 40.91 24 40.79 C22.99 40.78 21.97 40.78 20.93 40.78 C17.71 40.76 14.49 40.72 11.27 40.68 C9.08 40.67 6.9 40.65 4.71 40.64 C-0.65 40.61 -6 40.56 -11.35 40.5 C-12.86 37.47 -12.56 34.32 -12.59 31 C-12.6 30.26 -12.61 29.52 -12.61 28.75 C-12.63 27.18 -12.64 25.61 -12.65 24.04 C-12.66 21.64 -12.71 19.24 -12.75 16.84 C-12.76 15.31 -12.77 13.78 -12.78 12.25 C-12.79 11.54 -12.81 10.82 -12.83 10.08 C-12.82 6.88 -12.53 4.79 -10.85 2.04 C-7.31 -0.15 -4.03 -0.06 0 0 Z " fill="#FBFDFD" transform="translate(76.3515625,152.50390625)"/>
<path d="M0 0 C1.55 -0.02 1.55 -0.02 3.13 -0.04 C21.06 -0.07 21.06 -0.07 26.94 4.44 C32.37 10.42 33.15 15.89 32.98 23.76 C32.27 28.22 30.76 30.46 27.65 33.64 C22.09 37.53 17.13 38.64 10.42 38.55 C9.68 38.55 8.95 38.55 8.19 38.55 C6.64 38.55 5.09 38.54 3.55 38.52 C1.18 38.5 -1.19 38.5 -3.55 38.51 C-5.06 38.5 -6.57 38.5 -8.08 38.49 C-9.14 38.49 -9.14 38.49 -10.22 38.49 C-13.88 38.44 -15.43 38.28 -18.56 36.19 C-18.95 33.07 -18.95 33.07 -18.96 29.1 C-18.97 28.05 -18.97 28.05 -18.97 26.98 C-18.97 25.49 -18.97 24.01 -18.95 22.53 C-18.94 20.26 -18.95 18 -18.97 15.73 C-18.97 14.29 -18.97 12.85 -18.96 11.41 C-18.96 10.1 -18.95 8.79 -18.95 7.43 C-18.56 4.19 -18.56 4.19 -17.29 2.3 C-12.24 -0.96 -5.77 0 0 0 Z " fill="#FBFDFD" transform="translate(82.5625,58.8125)"/>
<path d="M0 0 C6.12 5.6 9.59 10.39 10.21 18.82 C10.52 27.95 9.03 34.73 2.72 41.52 C-2.3 45.82 -8.19 46.52 -14.62 46.28 C-21.75 45.45 -27.4 41.32 -32 36 C-35.88 29.15 -36.13 20.86 -34.38 13.32 C-31.81 5.8 -27.2 1.1 -20.12 -2.44 C-12.94 -3.73 -6.4 -3.91 0 0 Z " fill="#FAFCFC" transform="translate(1022,127)"/>
<path d="M0 0 C5.2 3.82 8.45 8.96 9.71 15.26 C10.44 23.39 11.1 31.61 5.71 38.26 C0.55 43.82 -4.43 46.23 -12.04 46.7 C-19.43 46.52 -25.69 43.31 -30.79 38.01 C-35.12 32.37 -35.89 25.19 -35.29 18.26 C-33.93 10.76 -31.17 5.2 -25.29 0.26 C-17.81 -4.44 -7.55 -4.42 0 0 Z " fill="#FBFDFD" transform="translate(1129.28515625,126.7421875)"/>
<path d="M0 0 C5.1 -0.07 10.21 -0.13 15.31 -0.16 C17.05 -0.18 18.78 -0.2 20.51 -0.23 C23.02 -0.26 25.52 -0.28 28.03 -0.29 C28.79 -0.31 29.55 -0.32 30.34 -0.34 C37.36 -0.34 43.63 0.93 49 5.62 C51.48 9.82 52.29 13.15 52 18 C50.33 23.21 47.79 25.46 43 28 C38.19 29.08 33.45 29.13 28.54 29.1 C27.75 29.1 26.96 29.09 26.14 29.09 C23.64 29.09 21.13 29.08 18.62 29.06 C16.92 29.06 15.21 29.05 13.5 29.05 C9.34 29.04 5.17 29.02 1 29 C-0.38 26.23 -0.11 23.99 -0.1 20.9 C-0.09 19.69 -0.09 18.47 -0.09 17.23 C-0.08 15.96 -0.07 14.68 -0.06 13.38 C-0.06 12.1 -0.05 10.82 -0.05 9.5 C-0.04 6.33 -0.02 3.17 0 0 Z " fill="#FAFCFC" transform="translate(871,144)"/>
<path d="M0 0 C4.55 -0.07 9.11 -0.13 13.66 -0.16 C15.21 -0.18 16.75 -0.2 18.3 -0.23 C36.61 -0.53 36.61 -0.53 42.88 4.51 C45.72 8.6 46.73 11.91 46.42 16.92 C45.76 20.19 44.46 21.8 42 24 C37.25 26.91 33.25 27.42 27.79 27.33 C27.03 27.33 26.26 27.32 25.47 27.32 C23.86 27.32 22.26 27.3 20.65 27.28 C18.18 27.25 15.71 27.24 13.24 27.23 C11.67 27.23 10.11 27.21 8.54 27.2 C7.8 27.2 7.06 27.19 6.3 27.19 C1.12 27.12 1.12 27.12 0 26 C-0.38 22.22 -0.47 18.42 -0.62 14.62 C-0.68 13.56 -0.73 12.49 -0.78 11.39 C-0.85 9.86 -0.85 9.86 -0.91 8.29 C-0.95 7.35 -1 6.41 -1.04 5.44 C-1 3 -1 3 0 0 Z " fill="#FAFCFC" transform="translate(871,97)"/>
<path d="M0 0 C1.42 0.01 1.42 0.01 2.88 0.02 C9.81 0.09 9.81 0.09 12.12 1.25 C12.99 10.93 12.99 10.93 9.94 14.69 C5.05 19.14 1.29 21.07 -5.25 21.44 C-11.41 21.12 -15.33 19.41 -19.88 15.25 C-21.54 11.93 -21.19 8.63 -20.38 5.06 C-15.57 -0.74 -6.83 -0.15 0 0 Z " fill="#FAFCFC" transform="translate(382.875,155.75)"/>
<path d="M0 0 C0.96 0.01 1.91 0.01 2.9 0.02 C9.91 0.1 9.91 0.1 11.06 1.25 C11.7 5.44 11.94 9.5 10 13.36 C5.99 18.44 1.36 20.58 -4.95 21.56 C-10.32 21.9 -14.54 20.3 -18.94 17.25 C-21.12 15.06 -21.12 15.06 -21.94 12.25 C-21.6 8.83 -20.99 6.03 -18.94 3.25 C-12.62 0.03 -6.99 -0.16 0 0 Z " fill="#FBFDFD" transform="translate(781.9375,155.75)"/>
</svg>
